M48
;DRILL file {KiCad (2015-10-14 BZR 6269)-product} date Wednesday, October 28, 2015 'PMt' 04:42:29 PM
;FORMAT={-:-/ absolute / inch / decimal}
FMAT,2
INCH,TZ
T1C0.022
T2C0.031
T3C0.032
T4C0.039
T5C0.039
T6C0.040
T7C0.060
T8C0.087
T9C0.106
%
G90
G05
M72
T1
X4.775Y-4.85
X5.05Y-4.9
X5.1121Y-4.65
X5.15Y-4.45
X5.325Y-5.175
X5.45Y-4.6
T2
X4.625Y-4.975
X4.625Y-5.275
X4.725Y-4.975
X4.725Y-5.275
X4.825Y-4.975
X4.825Y-5.275
X4.925Y-4.975
X4.925Y-5.275
T3
X4.55Y-4.3
X4.55Y-4.4
T4
X4.575Y-4.5531
X4.575Y-4.6516
X4.575Y-4.75
T5
X4.775Y-4.3
X4.875Y-4.3
X4.975Y-4.3
T6
X5.2Y-4.075
X5.3Y-4.075
X5.4Y-4.075
T7
X4.25Y-4.075
X4.25Y-4.275
X5.475Y-5.225
X5.675Y-5.225
X5.875Y-5.225
T8
X4.2994Y-4.4744
X4.2994Y-4.8287
T9
X4.2Y-5.275
X6.Y-4.025
T0
M30
