G04 #@! TF.FileFunction,Legend,Top*
%FSLAX46Y46*%
G04 Gerber Fmt 4.6, Leading zero omitted, Abs format (unit mm)*
G04 Created by KiCad (PCBNEW (2015-10-14 BZR 6269)-product) date Wednesday, October 28, 2015 'PMt' 04:42:18 PM*
%MOMM*%
G01*
G04 APERTURE LIST*
%ADD10C,0.100000*%
%ADD11C,0.300000*%
%ADD12C,0.150000*%
G04 APERTURE END LIST*
D10*
D11*
X131834286Y-106652143D02*
X132048572Y-106723571D01*
X132405715Y-106723571D01*
X132548572Y-106652143D01*
X132620001Y-106580714D01*
X132691429Y-106437857D01*
X132691429Y-106295000D01*
X132620001Y-106152143D01*
X132548572Y-106080714D01*
X132405715Y-106009286D01*
X132120001Y-105937857D01*
X131977143Y-105866429D01*
X131905715Y-105795000D01*
X131834286Y-105652143D01*
X131834286Y-105509286D01*
X131905715Y-105366429D01*
X131977143Y-105295000D01*
X132120001Y-105223571D01*
X132477143Y-105223571D01*
X132691429Y-105295000D01*
X133905714Y-106652143D02*
X133762857Y-106723571D01*
X133477143Y-106723571D01*
X133334286Y-106652143D01*
X133262857Y-106509286D01*
X133262857Y-105937857D01*
X133334286Y-105795000D01*
X133477143Y-105723571D01*
X133762857Y-105723571D01*
X133905714Y-105795000D01*
X133977143Y-105937857D01*
X133977143Y-106080714D01*
X133262857Y-106223571D01*
X134620000Y-106723571D02*
X134620000Y-105723571D01*
X134620000Y-106009286D02*
X134691428Y-105866429D01*
X134762857Y-105795000D01*
X134905714Y-105723571D01*
X135048571Y-105723571D01*
X135405714Y-105723571D02*
X135762857Y-106723571D01*
X136119999Y-105723571D01*
X136905714Y-106723571D02*
X136762856Y-106652143D01*
X136691428Y-106580714D01*
X136619999Y-106437857D01*
X136619999Y-106009286D01*
X136691428Y-105866429D01*
X136762856Y-105795000D01*
X136905714Y-105723571D01*
X137119999Y-105723571D01*
X137262856Y-105795000D01*
X137334285Y-105866429D01*
X137405714Y-106009286D01*
X137405714Y-106437857D01*
X137334285Y-106580714D01*
X137262856Y-106652143D01*
X137119999Y-106723571D01*
X136905714Y-106723571D01*
X132084286Y-101500714D02*
X132012857Y-101572143D01*
X131798571Y-101643571D01*
X131655714Y-101643571D01*
X131441429Y-101572143D01*
X131298571Y-101429286D01*
X131227143Y-101286429D01*
X131155714Y-101000714D01*
X131155714Y-100786429D01*
X131227143Y-100500714D01*
X131298571Y-100357857D01*
X131441429Y-100215000D01*
X131655714Y-100143571D01*
X131798571Y-100143571D01*
X132012857Y-100215000D01*
X132084286Y-100286429D01*
X133870000Y-101072143D02*
X135012857Y-101072143D01*
X134441428Y-101643571D02*
X134441428Y-100500714D01*
X136870000Y-101072143D02*
X138012857Y-101072143D01*
D12*
X117094000Y-110490000D02*
X117094000Y-109423200D01*
X117602000Y-109982000D02*
X116560600Y-109982000D01*
X118110000Y-110490000D02*
G75*
G03X118110000Y-110490000I-2540000J0D01*
G01*
X110910000Y-128385000D02*
X110910000Y-129385000D01*
X112610000Y-129385000D02*
X112610000Y-128385000D01*
X124575000Y-113245000D02*
X125575000Y-113245000D01*
X125575000Y-111545000D02*
X124575000Y-111545000D01*
X133235000Y-128690000D02*
X132235000Y-128690000D01*
X132235000Y-130390000D02*
X133235000Y-130390000D01*
X118400640Y-102235000D02*
X117850640Y-102685000D01*
X117850640Y-102685000D02*
X117850640Y-101785000D01*
X117850640Y-101785000D02*
X118400640Y-102235000D01*
X118400640Y-102785000D02*
X118400640Y-101685000D01*
X119949780Y-100484940D02*
X119949780Y-100835460D01*
X119949780Y-103985060D02*
X119949780Y-103634540D01*
X115900200Y-100484940D02*
X115900200Y-100835460D01*
X120401080Y-100484940D02*
X120401080Y-100835460D01*
X120401080Y-103985060D02*
X120401080Y-103634540D01*
X115900200Y-103985060D02*
X115900200Y-103634540D01*
X120401080Y-100484940D02*
X115900200Y-100484940D01*
X120401080Y-103985060D02*
X115900200Y-103985060D01*
X139920000Y-107854860D02*
X139920000Y-111454860D01*
X142020000Y-107854860D02*
X142020000Y-111454860D01*
X141270000Y-109904860D02*
X140670000Y-109904860D01*
X140670000Y-109904860D02*
X140970000Y-109604860D01*
X140970000Y-109604860D02*
X141170000Y-109804860D01*
X141170000Y-109804860D02*
X140920000Y-109804860D01*
X140920000Y-109804860D02*
X140970000Y-109754860D01*
X141470000Y-109504860D02*
X140470000Y-109504860D01*
X140970000Y-110004860D02*
X140970000Y-110504860D01*
X140970000Y-109504860D02*
X141470000Y-110004860D01*
X141470000Y-110004860D02*
X140470000Y-110004860D01*
X140470000Y-110004860D02*
X140970000Y-109504860D01*
X139920000Y-115474860D02*
X139920000Y-119074860D01*
X142020000Y-115474860D02*
X142020000Y-119074860D01*
X141270000Y-117524860D02*
X140670000Y-117524860D01*
X140670000Y-117524860D02*
X140970000Y-117224860D01*
X140970000Y-117224860D02*
X141170000Y-117424860D01*
X141170000Y-117424860D02*
X140920000Y-117424860D01*
X140920000Y-117424860D02*
X140970000Y-117374860D01*
X141470000Y-117124860D02*
X140470000Y-117124860D01*
X140970000Y-117624860D02*
X140970000Y-118124860D01*
X140970000Y-117124860D02*
X141470000Y-117624860D01*
X141470000Y-117624860D02*
X140470000Y-117624860D01*
X140470000Y-117624860D02*
X140970000Y-117124860D01*
X139920000Y-123094860D02*
X139920000Y-126694860D01*
X142020000Y-123094860D02*
X142020000Y-126694860D01*
X141270000Y-125144860D02*
X140670000Y-125144860D01*
X140670000Y-125144860D02*
X140970000Y-124844860D01*
X140970000Y-124844860D02*
X141170000Y-125044860D01*
X141170000Y-125044860D02*
X140920000Y-125044860D01*
X140920000Y-125044860D02*
X140970000Y-124994860D01*
X141470000Y-124744860D02*
X140470000Y-124744860D01*
X140970000Y-125244860D02*
X140970000Y-125744860D01*
X140970000Y-124744860D02*
X141470000Y-125244860D01*
X141470000Y-125244860D02*
X140470000Y-125244860D01*
X140470000Y-125244860D02*
X140970000Y-124744860D01*
X115180000Y-133850000D02*
X116450000Y-133850000D01*
X115180000Y-126500000D02*
X116450000Y-126500000D01*
X127390000Y-126500000D02*
X126120000Y-126500000D01*
X127390000Y-133850000D02*
X126120000Y-133850000D01*
X115180000Y-133850000D02*
X115180000Y-126500000D01*
X127390000Y-133850000D02*
X127390000Y-126500000D01*
X116450000Y-133850000D02*
X116450000Y-134785000D01*
X105410000Y-111125000D02*
X105410000Y-100965000D01*
X104140000Y-111125000D02*
X111760000Y-111125000D01*
X111760000Y-111125000D02*
X111760000Y-100965000D01*
X111760000Y-100965000D02*
X104140000Y-100965000D01*
X104140000Y-100965000D02*
X104140000Y-111125000D01*
X136525000Y-136525000D02*
X136525000Y-128905000D01*
X151765000Y-136525000D02*
X151765000Y-128905000D01*
X136525000Y-135255000D02*
X151765000Y-135255000D01*
X136525000Y-128905000D02*
X151765000Y-128905000D01*
X136525000Y-136525000D02*
X151765000Y-136525000D01*
X133350000Y-104775000D02*
X138430000Y-104775000D01*
X138430000Y-104775000D02*
X138430000Y-102235000D01*
X138430000Y-102235000D02*
X133350000Y-102235000D01*
X130530000Y-101955000D02*
X132080000Y-101955000D01*
X133350000Y-102235000D02*
X133350000Y-104775000D01*
X132080000Y-105055000D02*
X130530000Y-105055000D01*
X130530000Y-105055000D02*
X130530000Y-101955000D01*
X127045000Y-124065000D02*
X125845000Y-124065000D01*
X125845000Y-122315000D02*
X127045000Y-122315000D01*
X135935000Y-109460000D02*
X134735000Y-109460000D01*
X134735000Y-107710000D02*
X135935000Y-107710000D01*
X135935000Y-112000000D02*
X134735000Y-112000000D01*
X134735000Y-110250000D02*
X135935000Y-110250000D01*
X135935000Y-117080000D02*
X134735000Y-117080000D01*
X134735000Y-115330000D02*
X135935000Y-115330000D01*
X135935000Y-119620000D02*
X134735000Y-119620000D01*
X134735000Y-117870000D02*
X135935000Y-117870000D01*
X132035000Y-132475000D02*
X133235000Y-132475000D01*
X133235000Y-134225000D02*
X132035000Y-134225000D01*
X135935000Y-124700000D02*
X134735000Y-124700000D01*
X134735000Y-122950000D02*
X135935000Y-122950000D01*
X135935000Y-127240000D02*
X134735000Y-127240000D01*
X134735000Y-125490000D02*
X135935000Y-125490000D01*
X127315714Y-117820000D02*
G75*
G03X127315714Y-117820000I-1750714J0D01*
G01*
X128790000Y-114595000D02*
X128790000Y-114720000D01*
X128790000Y-121045000D02*
X128790000Y-120920000D01*
X122340000Y-121045000D02*
X122340000Y-120920000D01*
X122340000Y-114720000D02*
X122340000Y-114595000D01*
X128790000Y-116420000D02*
X128790000Y-119220000D01*
X122340000Y-114595000D02*
X128790000Y-114595000D01*
X122340000Y-116420000D02*
X122340000Y-119220000D01*
X122340000Y-121045000D02*
X128790000Y-121045000D01*
X151140714Y-109565000D02*
G75*
G03X151140714Y-109565000I-1750714J0D01*
G01*
X152615000Y-106340000D02*
X152615000Y-106465000D01*
X152615000Y-112790000D02*
X152615000Y-112665000D01*
X146165000Y-112790000D02*
X146165000Y-112665000D01*
X146165000Y-106465000D02*
X146165000Y-106340000D01*
X152615000Y-108165000D02*
X152615000Y-110965000D01*
X146165000Y-106340000D02*
X152615000Y-106340000D01*
X146165000Y-108165000D02*
X146165000Y-110965000D01*
X146165000Y-112790000D02*
X152615000Y-112790000D01*
X151140714Y-117185000D02*
G75*
G03X151140714Y-117185000I-1750714J0D01*
G01*
X152615000Y-113960000D02*
X152615000Y-114085000D01*
X152615000Y-120410000D02*
X152615000Y-120285000D01*
X146165000Y-120410000D02*
X146165000Y-120285000D01*
X146165000Y-114085000D02*
X146165000Y-113960000D01*
X152615000Y-115785000D02*
X152615000Y-118585000D01*
X146165000Y-113960000D02*
X152615000Y-113960000D01*
X146165000Y-115785000D02*
X146165000Y-118585000D01*
X146165000Y-120410000D02*
X152615000Y-120410000D01*
X151140714Y-124805000D02*
G75*
G03X151140714Y-124805000I-1750714J0D01*
G01*
X152615000Y-121580000D02*
X152615000Y-121705000D01*
X152615000Y-128030000D02*
X152615000Y-127905000D01*
X146165000Y-128030000D02*
X146165000Y-127905000D01*
X146165000Y-121705000D02*
X146165000Y-121580000D01*
X152615000Y-123405000D02*
X152615000Y-126205000D01*
X146165000Y-121580000D02*
X152615000Y-121580000D01*
X146165000Y-123405000D02*
X146165000Y-126205000D01*
X146165000Y-128030000D02*
X152615000Y-128030000D01*
X122301000Y-106172000D02*
X122301000Y-107315000D01*
X125349000Y-106172000D02*
X125349000Y-107315000D01*
X129159000Y-107315000D02*
X129159000Y-110998000D01*
X129159000Y-110998000D02*
X118491000Y-110998000D01*
X118491000Y-110998000D02*
X118491000Y-107315000D01*
X129159000Y-106172000D02*
X129159000Y-107315000D01*
X129159000Y-107315000D02*
X118491000Y-107315000D01*
X118491000Y-107315000D02*
X118491000Y-106172000D01*
X123825000Y-106172000D02*
X118491000Y-106172000D01*
X123825000Y-106172000D02*
X129159000Y-106172000D01*
X103705000Y-113650000D02*
X107205000Y-113650000D01*
X103705000Y-122650000D02*
X103705000Y-113650000D01*
X107205000Y-122650000D02*
X103705000Y-122650000D01*
X115705000Y-122650000D02*
X115705000Y-122150000D01*
X111205000Y-122650000D02*
X115705000Y-122650000D01*
X115705000Y-113650000D02*
X115705000Y-114150000D01*
X111205000Y-113650000D02*
X115705000Y-113650000D01*
X114768334Y-107672143D02*
X114720715Y-107719762D01*
X114577858Y-107767381D01*
X114482620Y-107767381D01*
X114339762Y-107719762D01*
X114244524Y-107624524D01*
X114196905Y-107529286D01*
X114149286Y-107338810D01*
X114149286Y-107195952D01*
X114196905Y-107005476D01*
X114244524Y-106910238D01*
X114339762Y-106815000D01*
X114482620Y-106767381D01*
X114577858Y-106767381D01*
X114720715Y-106815000D01*
X114768334Y-106862619D01*
X115720715Y-107767381D02*
X115149286Y-107767381D01*
X115435000Y-107767381D02*
X115435000Y-106767381D01*
X115339762Y-106910238D01*
X115244524Y-107005476D01*
X115149286Y-107053095D01*
X111593334Y-125452143D02*
X111545715Y-125499762D01*
X111402858Y-125547381D01*
X111307620Y-125547381D01*
X111164762Y-125499762D01*
X111069524Y-125404524D01*
X111021905Y-125309286D01*
X110974286Y-125118810D01*
X110974286Y-124975952D01*
X111021905Y-124785476D01*
X111069524Y-124690238D01*
X111164762Y-124595000D01*
X111307620Y-124547381D01*
X111402858Y-124547381D01*
X111545715Y-124595000D01*
X111593334Y-124642619D01*
X111974286Y-124642619D02*
X112021905Y-124595000D01*
X112117143Y-124547381D01*
X112355239Y-124547381D01*
X112450477Y-124595000D01*
X112498096Y-124642619D01*
X112545715Y-124737857D01*
X112545715Y-124833095D01*
X112498096Y-124975952D01*
X111926667Y-125547381D01*
X112545715Y-125547381D01*
X121118334Y-112752143D02*
X121070715Y-112799762D01*
X120927858Y-112847381D01*
X120832620Y-112847381D01*
X120689762Y-112799762D01*
X120594524Y-112704524D01*
X120546905Y-112609286D01*
X120499286Y-112418810D01*
X120499286Y-112275952D01*
X120546905Y-112085476D01*
X120594524Y-111990238D01*
X120689762Y-111895000D01*
X120832620Y-111847381D01*
X120927858Y-111847381D01*
X121070715Y-111895000D01*
X121118334Y-111942619D01*
X121451667Y-111847381D02*
X122070715Y-111847381D01*
X121737381Y-112228333D01*
X121880239Y-112228333D01*
X121975477Y-112275952D01*
X122023096Y-112323571D01*
X122070715Y-112418810D01*
X122070715Y-112656905D01*
X122023096Y-112752143D01*
X121975477Y-112799762D01*
X121880239Y-112847381D01*
X121594524Y-112847381D01*
X121499286Y-112799762D01*
X121451667Y-112752143D01*
X128778334Y-129897143D02*
X128730715Y-129944762D01*
X128587858Y-129992381D01*
X128492620Y-129992381D01*
X128349762Y-129944762D01*
X128254524Y-129849524D01*
X128206905Y-129754286D01*
X128159286Y-129563810D01*
X128159286Y-129420952D01*
X128206905Y-129230476D01*
X128254524Y-129135238D01*
X128349762Y-129040000D01*
X128492620Y-128992381D01*
X128587858Y-128992381D01*
X128730715Y-129040000D01*
X128778334Y-129087619D01*
X129635477Y-129325714D02*
X129635477Y-129992381D01*
X129397381Y-128944762D02*
X129159286Y-129659048D01*
X129778334Y-129659048D01*
X115466905Y-105537381D02*
X115466905Y-104537381D01*
X115705000Y-104537381D01*
X115847858Y-104585000D01*
X115943096Y-104680238D01*
X115990715Y-104775476D01*
X116038334Y-104965952D01*
X116038334Y-105108810D01*
X115990715Y-105299286D01*
X115943096Y-105394524D01*
X115847858Y-105489762D01*
X115705000Y-105537381D01*
X115466905Y-105537381D01*
X116990715Y-105537381D02*
X116419286Y-105537381D01*
X116705000Y-105537381D02*
X116705000Y-104537381D01*
X116609762Y-104680238D01*
X116514524Y-104775476D01*
X116419286Y-104823095D01*
X123644375Y-102687381D02*
X123644375Y-101687381D01*
X124215804Y-102687381D02*
X123787232Y-102115952D01*
X124215804Y-101687381D02*
X123644375Y-102258810D01*
X112238185Y-102401667D02*
X112714376Y-102401667D01*
X112142947Y-102687381D02*
X112476280Y-101687381D01*
X112809614Y-102687381D01*
X139596905Y-107132381D02*
X139596905Y-106132381D01*
X139835000Y-106132381D01*
X139977858Y-106180000D01*
X140073096Y-106275238D01*
X140120715Y-106370476D01*
X140168334Y-106560952D01*
X140168334Y-106703810D01*
X140120715Y-106894286D01*
X140073096Y-106989524D01*
X139977858Y-107084762D01*
X139835000Y-107132381D01*
X139596905Y-107132381D01*
X140549286Y-106227619D02*
X140596905Y-106180000D01*
X140692143Y-106132381D01*
X140930239Y-106132381D01*
X141025477Y-106180000D01*
X141073096Y-106227619D01*
X141120715Y-106322857D01*
X141120715Y-106418095D01*
X141073096Y-106560952D01*
X140501667Y-107132381D01*
X141120715Y-107132381D01*
X139596905Y-114752381D02*
X139596905Y-113752381D01*
X139835000Y-113752381D01*
X139977858Y-113800000D01*
X140073096Y-113895238D01*
X140120715Y-113990476D01*
X140168334Y-114180952D01*
X140168334Y-114323810D01*
X140120715Y-114514286D01*
X140073096Y-114609524D01*
X139977858Y-114704762D01*
X139835000Y-114752381D01*
X139596905Y-114752381D01*
X140501667Y-113752381D02*
X141120715Y-113752381D01*
X140787381Y-114133333D01*
X140930239Y-114133333D01*
X141025477Y-114180952D01*
X141073096Y-114228571D01*
X141120715Y-114323810D01*
X141120715Y-114561905D01*
X141073096Y-114657143D01*
X141025477Y-114704762D01*
X140930239Y-114752381D01*
X140644524Y-114752381D01*
X140549286Y-114704762D01*
X140501667Y-114657143D01*
X139596905Y-122372381D02*
X139596905Y-121372381D01*
X139835000Y-121372381D01*
X139977858Y-121420000D01*
X140073096Y-121515238D01*
X140120715Y-121610476D01*
X140168334Y-121800952D01*
X140168334Y-121943810D01*
X140120715Y-122134286D01*
X140073096Y-122229524D01*
X139977858Y-122324762D01*
X139835000Y-122372381D01*
X139596905Y-122372381D01*
X141025477Y-121705714D02*
X141025477Y-122372381D01*
X140787381Y-121324762D02*
X140549286Y-122039048D01*
X141168334Y-122039048D01*
X112053810Y-133802381D02*
X112053810Y-132802381D01*
X113101429Y-133707143D02*
X113053810Y-133754762D01*
X112910953Y-133802381D01*
X112815715Y-133802381D01*
X112672857Y-133754762D01*
X112577619Y-133659524D01*
X112530000Y-133564286D01*
X112482381Y-133373810D01*
X112482381Y-133230952D01*
X112530000Y-133040476D01*
X112577619Y-132945238D01*
X112672857Y-132850000D01*
X112815715Y-132802381D01*
X112910953Y-132802381D01*
X113053810Y-132850000D01*
X113101429Y-132897619D01*
X114053810Y-133802381D02*
X113482381Y-133802381D01*
X113768095Y-133802381D02*
X113768095Y-132802381D01*
X113672857Y-132945238D01*
X113577619Y-133040476D01*
X113482381Y-133088095D01*
X105306905Y-100782381D02*
X105306905Y-99782381D01*
X105687858Y-99782381D01*
X105783096Y-99830000D01*
X105830715Y-99877619D01*
X105878334Y-99972857D01*
X105878334Y-100115714D01*
X105830715Y-100210952D01*
X105783096Y-100258571D01*
X105687858Y-100306190D01*
X105306905Y-100306190D01*
X106830715Y-100782381D02*
X106259286Y-100782381D01*
X106545000Y-100782381D02*
X106545000Y-99782381D01*
X106449762Y-99925238D01*
X106354524Y-100020476D01*
X106259286Y-100068095D01*
X136421905Y-128087381D02*
X136421905Y-127087381D01*
X136802858Y-127087381D01*
X136898096Y-127135000D01*
X136945715Y-127182619D01*
X136993334Y-127277857D01*
X136993334Y-127420714D01*
X136945715Y-127515952D01*
X136898096Y-127563571D01*
X136802858Y-127611190D01*
X136421905Y-127611190D01*
X137374286Y-127182619D02*
X137421905Y-127135000D01*
X137517143Y-127087381D01*
X137755239Y-127087381D01*
X137850477Y-127135000D01*
X137898096Y-127182619D01*
X137945715Y-127277857D01*
X137945715Y-127373095D01*
X137898096Y-127515952D01*
X137326667Y-128087381D01*
X137945715Y-128087381D01*
X127531905Y-103957381D02*
X127531905Y-102957381D01*
X127912858Y-102957381D01*
X128008096Y-103005000D01*
X128055715Y-103052619D01*
X128103334Y-103147857D01*
X128103334Y-103290714D01*
X128055715Y-103385952D01*
X128008096Y-103433571D01*
X127912858Y-103481190D01*
X127531905Y-103481190D01*
X128436667Y-102957381D02*
X129055715Y-102957381D01*
X128722381Y-103338333D01*
X128865239Y-103338333D01*
X128960477Y-103385952D01*
X129008096Y-103433571D01*
X129055715Y-103528810D01*
X129055715Y-103766905D01*
X129008096Y-103862143D01*
X128960477Y-103909762D01*
X128865239Y-103957381D01*
X128579524Y-103957381D01*
X128484286Y-103909762D01*
X128436667Y-103862143D01*
X122548334Y-123642381D02*
X122215000Y-123166190D01*
X121976905Y-123642381D02*
X121976905Y-122642381D01*
X122357858Y-122642381D01*
X122453096Y-122690000D01*
X122500715Y-122737619D01*
X122548334Y-122832857D01*
X122548334Y-122975714D01*
X122500715Y-123070952D01*
X122453096Y-123118571D01*
X122357858Y-123166190D01*
X121976905Y-123166190D01*
X123500715Y-123642381D02*
X122929286Y-123642381D01*
X123215000Y-123642381D02*
X123215000Y-122642381D01*
X123119762Y-122785238D01*
X123024524Y-122880476D01*
X122929286Y-122928095D01*
X130803334Y-109037381D02*
X130470000Y-108561190D01*
X130231905Y-109037381D02*
X130231905Y-108037381D01*
X130612858Y-108037381D01*
X130708096Y-108085000D01*
X130755715Y-108132619D01*
X130803334Y-108227857D01*
X130803334Y-108370714D01*
X130755715Y-108465952D01*
X130708096Y-108513571D01*
X130612858Y-108561190D01*
X130231905Y-108561190D01*
X131184286Y-108132619D02*
X131231905Y-108085000D01*
X131327143Y-108037381D01*
X131565239Y-108037381D01*
X131660477Y-108085000D01*
X131708096Y-108132619D01*
X131755715Y-108227857D01*
X131755715Y-108323095D01*
X131708096Y-108465952D01*
X131136667Y-109037381D01*
X131755715Y-109037381D01*
X130803334Y-111577381D02*
X130470000Y-111101190D01*
X130231905Y-111577381D02*
X130231905Y-110577381D01*
X130612858Y-110577381D01*
X130708096Y-110625000D01*
X130755715Y-110672619D01*
X130803334Y-110767857D01*
X130803334Y-110910714D01*
X130755715Y-111005952D01*
X130708096Y-111053571D01*
X130612858Y-111101190D01*
X130231905Y-111101190D01*
X131136667Y-110577381D02*
X131755715Y-110577381D01*
X131422381Y-110958333D01*
X131565239Y-110958333D01*
X131660477Y-111005952D01*
X131708096Y-111053571D01*
X131755715Y-111148810D01*
X131755715Y-111386905D01*
X131708096Y-111482143D01*
X131660477Y-111529762D01*
X131565239Y-111577381D01*
X131279524Y-111577381D01*
X131184286Y-111529762D01*
X131136667Y-111482143D01*
X131278334Y-116657381D02*
X130945000Y-116181190D01*
X130706905Y-116657381D02*
X130706905Y-115657381D01*
X131087858Y-115657381D01*
X131183096Y-115705000D01*
X131230715Y-115752619D01*
X131278334Y-115847857D01*
X131278334Y-115990714D01*
X131230715Y-116085952D01*
X131183096Y-116133571D01*
X131087858Y-116181190D01*
X130706905Y-116181190D01*
X132135477Y-115990714D02*
X132135477Y-116657381D01*
X131897381Y-115609762D02*
X131659286Y-116324048D01*
X132278334Y-116324048D01*
X131278334Y-119197381D02*
X130945000Y-118721190D01*
X130706905Y-119197381D02*
X130706905Y-118197381D01*
X131087858Y-118197381D01*
X131183096Y-118245000D01*
X131230715Y-118292619D01*
X131278334Y-118387857D01*
X131278334Y-118530714D01*
X131230715Y-118625952D01*
X131183096Y-118673571D01*
X131087858Y-118721190D01*
X130706905Y-118721190D01*
X132183096Y-118197381D02*
X131706905Y-118197381D01*
X131659286Y-118673571D01*
X131706905Y-118625952D01*
X131802143Y-118578333D01*
X132040239Y-118578333D01*
X132135477Y-118625952D01*
X132183096Y-118673571D01*
X132230715Y-118768810D01*
X132230715Y-119006905D01*
X132183096Y-119102143D01*
X132135477Y-119149762D01*
X132040239Y-119197381D01*
X131802143Y-119197381D01*
X131706905Y-119149762D01*
X131659286Y-119102143D01*
X128738334Y-133802381D02*
X128405000Y-133326190D01*
X128166905Y-133802381D02*
X128166905Y-132802381D01*
X128547858Y-132802381D01*
X128643096Y-132850000D01*
X128690715Y-132897619D01*
X128738334Y-132992857D01*
X128738334Y-133135714D01*
X128690715Y-133230952D01*
X128643096Y-133278571D01*
X128547858Y-133326190D01*
X128166905Y-133326190D01*
X129595477Y-132802381D02*
X129405000Y-132802381D01*
X129309762Y-132850000D01*
X129262143Y-132897619D01*
X129166905Y-133040476D01*
X129119286Y-133230952D01*
X129119286Y-133611905D01*
X129166905Y-133707143D01*
X129214524Y-133754762D01*
X129309762Y-133802381D01*
X129500239Y-133802381D01*
X129595477Y-133754762D01*
X129643096Y-133707143D01*
X129690715Y-133611905D01*
X129690715Y-133373810D01*
X129643096Y-133278571D01*
X129595477Y-133230952D01*
X129500239Y-133183333D01*
X129309762Y-133183333D01*
X129214524Y-133230952D01*
X129166905Y-133278571D01*
X129119286Y-133373810D01*
X131278334Y-124277381D02*
X130945000Y-123801190D01*
X130706905Y-124277381D02*
X130706905Y-123277381D01*
X131087858Y-123277381D01*
X131183096Y-123325000D01*
X131230715Y-123372619D01*
X131278334Y-123467857D01*
X131278334Y-123610714D01*
X131230715Y-123705952D01*
X131183096Y-123753571D01*
X131087858Y-123801190D01*
X130706905Y-123801190D01*
X131611667Y-123277381D02*
X132278334Y-123277381D01*
X131849762Y-124277381D01*
X131278334Y-126817381D02*
X130945000Y-126341190D01*
X130706905Y-126817381D02*
X130706905Y-125817381D01*
X131087858Y-125817381D01*
X131183096Y-125865000D01*
X131230715Y-125912619D01*
X131278334Y-126007857D01*
X131278334Y-126150714D01*
X131230715Y-126245952D01*
X131183096Y-126293571D01*
X131087858Y-126341190D01*
X130706905Y-126341190D01*
X131849762Y-126245952D02*
X131754524Y-126198333D01*
X131706905Y-126150714D01*
X131659286Y-126055476D01*
X131659286Y-126007857D01*
X131706905Y-125912619D01*
X131754524Y-125865000D01*
X131849762Y-125817381D01*
X132040239Y-125817381D01*
X132135477Y-125865000D01*
X132183096Y-125912619D01*
X132230715Y-126007857D01*
X132230715Y-126055476D01*
X132183096Y-126150714D01*
X132135477Y-126198333D01*
X132040239Y-126245952D01*
X131849762Y-126245952D01*
X131754524Y-126293571D01*
X131706905Y-126341190D01*
X131659286Y-126436429D01*
X131659286Y-126626905D01*
X131706905Y-126722143D01*
X131754524Y-126769762D01*
X131849762Y-126817381D01*
X132040239Y-126817381D01*
X132135477Y-126769762D01*
X132183096Y-126722143D01*
X132230715Y-126626905D01*
X132230715Y-126436429D01*
X132183096Y-126341190D01*
X132135477Y-126293571D01*
X132040239Y-126245952D01*
X124231667Y-117424762D02*
X124374524Y-117472381D01*
X124612620Y-117472381D01*
X124707858Y-117424762D01*
X124755477Y-117377143D01*
X124803096Y-117281905D01*
X124803096Y-117186667D01*
X124755477Y-117091429D01*
X124707858Y-117043810D01*
X124612620Y-116996190D01*
X124422143Y-116948571D01*
X124326905Y-116900952D01*
X124279286Y-116853333D01*
X124231667Y-116758095D01*
X124231667Y-116662857D01*
X124279286Y-116567619D01*
X124326905Y-116520000D01*
X124422143Y-116472381D01*
X124660239Y-116472381D01*
X124803096Y-116520000D01*
X125136429Y-116472381D02*
X125374524Y-117472381D01*
X125565001Y-116758095D01*
X125755477Y-117472381D01*
X125993572Y-116472381D01*
X126898334Y-117472381D02*
X126326905Y-117472381D01*
X126612619Y-117472381D02*
X126612619Y-116472381D01*
X126517381Y-116615238D01*
X126422143Y-116710476D01*
X126326905Y-116758095D01*
X148056667Y-109169762D02*
X148199524Y-109217381D01*
X148437620Y-109217381D01*
X148532858Y-109169762D01*
X148580477Y-109122143D01*
X148628096Y-109026905D01*
X148628096Y-108931667D01*
X148580477Y-108836429D01*
X148532858Y-108788810D01*
X148437620Y-108741190D01*
X148247143Y-108693571D01*
X148151905Y-108645952D01*
X148104286Y-108598333D01*
X148056667Y-108503095D01*
X148056667Y-108407857D01*
X148104286Y-108312619D01*
X148151905Y-108265000D01*
X148247143Y-108217381D01*
X148485239Y-108217381D01*
X148628096Y-108265000D01*
X148961429Y-108217381D02*
X149199524Y-109217381D01*
X149390001Y-108503095D01*
X149580477Y-109217381D01*
X149818572Y-108217381D01*
X150151905Y-108312619D02*
X150199524Y-108265000D01*
X150294762Y-108217381D01*
X150532858Y-108217381D01*
X150628096Y-108265000D01*
X150675715Y-108312619D01*
X150723334Y-108407857D01*
X150723334Y-108503095D01*
X150675715Y-108645952D01*
X150104286Y-109217381D01*
X150723334Y-109217381D01*
X148056667Y-116789762D02*
X148199524Y-116837381D01*
X148437620Y-116837381D01*
X148532858Y-116789762D01*
X148580477Y-116742143D01*
X148628096Y-116646905D01*
X148628096Y-116551667D01*
X148580477Y-116456429D01*
X148532858Y-116408810D01*
X148437620Y-116361190D01*
X148247143Y-116313571D01*
X148151905Y-116265952D01*
X148104286Y-116218333D01*
X148056667Y-116123095D01*
X148056667Y-116027857D01*
X148104286Y-115932619D01*
X148151905Y-115885000D01*
X148247143Y-115837381D01*
X148485239Y-115837381D01*
X148628096Y-115885000D01*
X148961429Y-115837381D02*
X149199524Y-116837381D01*
X149390001Y-116123095D01*
X149580477Y-116837381D01*
X149818572Y-115837381D01*
X150104286Y-115837381D02*
X150723334Y-115837381D01*
X150390000Y-116218333D01*
X150532858Y-116218333D01*
X150628096Y-116265952D01*
X150675715Y-116313571D01*
X150723334Y-116408810D01*
X150723334Y-116646905D01*
X150675715Y-116742143D01*
X150628096Y-116789762D01*
X150532858Y-116837381D01*
X150247143Y-116837381D01*
X150151905Y-116789762D01*
X150104286Y-116742143D01*
X148056667Y-124409762D02*
X148199524Y-124457381D01*
X148437620Y-124457381D01*
X148532858Y-124409762D01*
X148580477Y-124362143D01*
X148628096Y-124266905D01*
X148628096Y-124171667D01*
X148580477Y-124076429D01*
X148532858Y-124028810D01*
X148437620Y-123981190D01*
X148247143Y-123933571D01*
X148151905Y-123885952D01*
X148104286Y-123838333D01*
X148056667Y-123743095D01*
X148056667Y-123647857D01*
X148104286Y-123552619D01*
X148151905Y-123505000D01*
X148247143Y-123457381D01*
X148485239Y-123457381D01*
X148628096Y-123505000D01*
X148961429Y-123457381D02*
X149199524Y-124457381D01*
X149390001Y-123743095D01*
X149580477Y-124457381D01*
X149818572Y-123457381D01*
X150628096Y-123790714D02*
X150628096Y-124457381D01*
X150390000Y-123409762D02*
X150151905Y-124124048D01*
X150770953Y-124124048D01*
X119253095Y-104862381D02*
X119253095Y-105671905D01*
X119300714Y-105767143D01*
X119348333Y-105814762D01*
X119443571Y-105862381D01*
X119634048Y-105862381D01*
X119729286Y-105814762D01*
X119776905Y-105767143D01*
X119824524Y-105671905D01*
X119824524Y-104862381D01*
X120824524Y-105862381D02*
X120253095Y-105862381D01*
X120538809Y-105862381D02*
X120538809Y-104862381D01*
X120443571Y-105005238D01*
X120348333Y-105100476D01*
X120253095Y-105148095D01*
X110307381Y-118745238D02*
X109831190Y-119078572D01*
X110307381Y-119316667D02*
X109307381Y-119316667D01*
X109307381Y-118935714D01*
X109355000Y-118840476D01*
X109402619Y-118792857D01*
X109497857Y-118745238D01*
X109640714Y-118745238D01*
X109735952Y-118792857D01*
X109783571Y-118840476D01*
X109831190Y-118935714D01*
X109831190Y-119316667D01*
X109307381Y-118459524D02*
X110307381Y-118126191D01*
X109307381Y-117792857D01*
X110307381Y-116935714D02*
X110307381Y-117507143D01*
X110307381Y-117221429D02*
X109307381Y-117221429D01*
X109450238Y-117316667D01*
X109545476Y-117411905D01*
X109593095Y-117507143D01*
M02*
