G04 #@! TF.FileFunction,Soldermask,Top*
%FSLAX46Y46*%
G04 Gerber Fmt 4.6, Leading zero omitted, Abs format (unit mm)*
G04 Created by KiCad (PCBNEW (2015-10-14 BZR 6269)-product) date Wednesday, October 28, 2015 'PMt' 04:42:18 PM*
%MOMM*%
G01*
G04 APERTURE LIST*
%ADD10C,0.100000*%
%ADD11C,1.501140*%
%ADD12R,1.250000X1.500000*%
%ADD13R,1.500000X1.250000*%
%ADD14R,3.500120X1.800860*%
%ADD15R,1.800860X1.597660*%
%ADD16O,1.600000X1.600000*%
%ADD17R,2.540000X2.540000*%
%ADD18C,2.540000*%
%ADD19R,1.727200X2.032000*%
%ADD20O,1.727200X2.032000*%
%ADD21R,1.500000X1.300000*%
%ADD22R,1.550000X1.300000*%
%ADD23O,1.501140X2.499360*%
%ADD24C,2.000000*%
%ADD25C,3.500000*%
G04 APERTURE END LIST*
D10*
D11*
X115570000Y-111760000D03*
X115570000Y-109220000D03*
D12*
X111760000Y-130135000D03*
X111760000Y-127635000D03*
D13*
X126325000Y-112395000D03*
X123825000Y-112395000D03*
X131485000Y-129540000D03*
X133985000Y-129540000D03*
D14*
X120650000Y-102235000D03*
X115651280Y-102235000D03*
D15*
X140970000Y-111424720D03*
X140970000Y-108585000D03*
X140970000Y-119044720D03*
X140970000Y-116205000D03*
X140970000Y-126664720D03*
X140970000Y-123825000D03*
D16*
X117475000Y-133985000D03*
X120015000Y-133985000D03*
X122555000Y-133985000D03*
X125095000Y-133985000D03*
X125095000Y-126365000D03*
X122555000Y-126365000D03*
X120015000Y-126365000D03*
X117475000Y-126365000D03*
D17*
X107950000Y-103505000D03*
D18*
X107950000Y-108585000D03*
D17*
X139065000Y-132715000D03*
D18*
X144145000Y-132715000D03*
X149225000Y-132715000D03*
D19*
X132080000Y-103505000D03*
D20*
X134620000Y-103505000D03*
X137160000Y-103505000D03*
D21*
X125095000Y-123190000D03*
X127795000Y-123190000D03*
X133985000Y-108585000D03*
X136685000Y-108585000D03*
X133985000Y-111125000D03*
X136685000Y-111125000D03*
X133985000Y-116205000D03*
X136685000Y-116205000D03*
X133985000Y-118745000D03*
X136685000Y-118745000D03*
X133985000Y-133350000D03*
X131285000Y-133350000D03*
X133985000Y-123825000D03*
X136685000Y-123825000D03*
X133985000Y-126365000D03*
X136685000Y-126365000D03*
D22*
X121590000Y-120070000D03*
X121590000Y-115570000D03*
X129540000Y-115570000D03*
X129540000Y-120070000D03*
X145415000Y-111815000D03*
X145415000Y-107315000D03*
X153365000Y-107315000D03*
X153365000Y-111815000D03*
X145415000Y-119435000D03*
X145415000Y-114935000D03*
X153365000Y-114935000D03*
X153365000Y-119435000D03*
X145415000Y-127055000D03*
X145415000Y-122555000D03*
X153365000Y-122555000D03*
X153365000Y-127055000D03*
D23*
X123825000Y-109220000D03*
X121285000Y-109220000D03*
X126365000Y-109220000D03*
D24*
X116205000Y-120650000D03*
X116205000Y-118150000D03*
X116205000Y-115650000D03*
D25*
X109205000Y-122650000D03*
X109205000Y-113650000D03*
M02*
